<?xml version="1.0" encoding="UTF-8"?>
<svg id="Layer_2" data-name="Layer 2" xmlns="http://www.w3.org/2000/svg" viewBox="0 0 189.63 101.44">
  <defs>
    <style>
      .cls-1 {
        fill: #fff;
      }
    </style>
  </defs>
  <g id="Layer_1-2" data-name="Layer 1">
    <g>
      <path class="cls-1" d="M44.44,101.37c-14.74,0-25.84-4.28-33.28-12.84C3.72,79.97,0,67.35,0,50.69c0-10.39,1.61-19.38,4.84-26.96,3.23-7.58,8.14-13.43,14.73-17.55C26.17,2.06,34.45,0,44.44,0s18.27,2.06,24.86,6.18c6.59,4.12,11.51,9.97,14.77,17.55,3.25,7.58,4.88,16.56,4.88,26.96s-1.61,19.01-4.84,26.55c-3.23,7.53-8.13,13.44-14.7,17.72-6.57,4.28-14.89,6.42-24.97,6.42ZM35.17,71.22c4.42-.64,11.99-3.47,18.24-7.2,6.21-3.71,13.95-10.39,13.84-15.41-.13-6.29-9.47-11.26-15.2-14.73-4.81-2.91-12.46-5.93-18.49-6.22-5.32-.26-6.72,1.96-8.23,6.22-1.42,4-1.23,8.82-.99,15.64.19,5.47,1.17,14.16,2.7,17.45s4.29,4.81,8.13,4.25Z"/>
      <path class="cls-1" d="M166.48,101.44c-3.85,0-7.26-.76-10.23-2.27-4.3-2.2-6.63-6.14-6.97-11.81-.34-5.68-1.13-10.08-2.37-13.22-1.24-3.14-2.98-5.28-5.22-6.42-.87-.46-1.6-.69-2.2-.69-1.14,0-1.72.87-1.72,2.61,0,1.05.34,4.33,1.03,9.82.37,3.11.55,5.36.55,6.73,0,4.67-1.69,8.29-5.08,10.85-3.89,2.93-9.11,4.4-15.66,4.4-5.49,0-9.98-1.1-13.46-3.3-3.66-2.29-5.82-5.75-6.46-10.37-1.92-14.47-2.88-29.17-2.88-44.09,0-11.54.57-20.47,1.72-26.79,1.14-6.32,3.33-10.71,6.56-13.19s7.93-3.71,14.11-3.71c5.59,0,9.91.76,12.98,2.27,3.07,1.51,5.05,3.4,5.94,5.67.89,2.27,1.34,4.5,1.34,6.7,0,1.14-.09,2.36-.27,3.64-.96,7.24-1.47,14.86-1.51,22.87,0,1.33.3,1.99.89,1.99.46,0,.96-.37,1.51-1.1,3.57-4.99,5.91-14.81,7.01-29.46.64-8.38,5.79-12.57,15.45-12.57,1.88,0,3.85.21,5.91.62,5.72,1.14,9.8,3.08,12.23,5.8,2.43,2.72,3.64,6.28,3.64,10.68,0,5.54-1.09,10.57-3.26,15.08-2.17,4.51-5.14,8.76-8.9,12.74-.96,1.05-1.44,2.06-1.44,3.02,0,1.24.64,2.27,1.92,3.09,5.91,3.8,10.38,8.33,13.43,13.6,3.04,5.27,4.57,10.97,4.57,17.1,0,3.07-.58,5.94-1.75,8.62-1.17,2.68-3.07,4.95-5.7,6.8-2.63,1.85-6.1,3.15-10.41,3.88-1.83.27-3.59.41-5.29.41Z"/>
    </g>
  </g>
</svg>